# File created by Blade
# Date/Time:  Thu Jan 22 16:25:48 2015
# Frame Rate: 120.000 fps
#------------------------------------------------------
:FULLY-SPECIFIED
:DEGREES
355
root -0.587470 39.135690 8.875801 38.661061 14.988143 39.235162
RightUpLeg -29.318656 -4.151301 -36.122217
RightLeg 16.548758 -0.000000 -0.000000
RightFoot -16.577124 -25.819420 10.718183
RightToeBase 6.633346 -0.000000 -0.000000
LeftUpLeg 10.536295 -33.991454 7.786689
LeftLeg 128.027815 -0.000000 -0.000000
LeftFoot 16.000095 15.813089 -29.592997
LeftToeBase 3.307290 -0.000000 -0.000000
Spine 12.521684 2.540869 -18.741339
RightShoulder -1.130790 -11.750170 -33.672881
RightArm 17.864473 33.249794 25.648476
RightForeArm 12.633603 -0.000000 32.872495
RightHand 7.181961 -0.000000 -14.162357
RightHandThumb1 -24.326973 -0.000000 -32.862282
LeftShoulder -33.817931 37.162450 -15.886037
LeftArm 31.294801 -17.233757 -63.848328
LeftForeArm 50.282109 -0.000000 11.844692
LeftHand -11.139714 -0.000000 -20.372343
LeftHandThumb1 -26.253704 0.000000 33.147579
Head 1.382810 -8.477432 -20.102681
356
root -0.573483 39.136790 8.847087 39.021340 15.033006 39.462129
RightUpLeg -29.754605 -4.893038 -36.105128
RightLeg 17.011815 -0.000000 -0.000000
RightFoot -16.626273 -25.721312 10.925668
RightToeBase 7.038714 -0.000000 -0.000000
LeftUpLeg 10.750660 -33.997016 7.624154
LeftLeg 127.988314 -0.000000 -0.000000
LeftFoot 15.946324 15.901585 -29.652941
LeftToeBase 3.436834 -0.000000 -0.000000
Spine 12.580936 2.402202 -18.734884
RightShoulder -1.238132 -11.500396 -33.906057
RightArm 17.679801 33.736659 25.450836
RightForeArm 12.546329 0.000000 32.599859
RightHand 7.197277 -0.000000 -14.333925
RightHandThumb1 -24.326973 -0.000000 -32.862282
LeftShoulder -33.864812 37.155068 -15.885093
LeftArm 31.255319 -17.301418 -63.977147
LeftForeArm 50.520095 -0.000000 11.702665
LeftHand -11.041391 -0.000000 -20.171783
LeftHandThumb1 -26.253704 0.000000 33.147579
Head 1.291599 -8.745411 -20.099648
357
root -0.566461 39.136363 8.815174 39.408297 15.110960 39.680023
RightUpLeg -30.290761 -5.734721 -35.987412
RightLeg 17.618907 -0.000000 -0.000000
RightFoot -16.676389 -25.653876 11.029754
RightToeBase 7.133455 -0.000000 -0.000000
LeftUpLeg 10.898849 -34.020090 7.539147
LeftLeg 127.951485 -0.000000 -0.000000
LeftFoot 16.014539 15.960562 -29.463216
LeftToeBase 3.280221 -0.000000 -0.000000
Spine 12.625711 2.244060 -18.718549
RightShoulder -1.321257 -11.209534 -34.126351
RightArm 17.365228 34.046863 25.158422
RightForeArm 12.669863 -0.000000 32.366392
RightHand 7.196339 -0.000000 -14.596161
RightHandThumb1 -24.326973 -0.000000 -32.862282
LeftShoulder -33.848913 37.066166 -15.786643
LeftArm 31.095153 -17.340202 -64.104701
LeftForeArm 50.644808 -0.000000 11.689895
LeftHand -11.275981 -0.000000 -20.345236
LeftHandThumb1 -26.253704 0.000000 33.147579
Head 1.180854 -9.088035 -20.066596
358
root -0.560117 39.133416 8.781407 39.804219 15.214930 39.882166
RightUpLeg -30.934289 -6.726732 -35.746427
RightLeg 18.375402 -0.000000 -0.000000
RightFoot -16.713933 -25.556660 11.077877
RightToeBase 7.076991 -0.000000 -0.000000
LeftUpLeg 11.008537 -34.039686 7.516060
LeftLeg 127.943408 -0.000000 -0.000000
LeftFoot 15.976917 16.044491 -29.505567
LeftToeBase 3.537703 -0.000000 -0.000000
Spine 12.627996 2.037917 -18.651877
RightShoulder -1.337410 -10.929993 -34.379849
RightArm 17.086627 34.470460 24.938740
RightForeArm 12.487126 -0.000000 32.118766
RightHand 7.323507 0.000000 -14.690625
RightHandThumb1 -24.326973 -0.000000 -32.862282
LeftShoulder -33.956971 37.129647 -15.845487
LeftArm 31.124473 -17.448429 -64.308809
LeftForeArm 50.794474 -0.000000 11.592690
LeftHand -11.242689 -0.000000 -20.278879
LeftHandThumb1 -26.253704 0.000000 33.147579
Head 1.156095 -9.322118 -20.130438
359
root -0.561595 39.127355 8.741389 40.235908 15.315430 40.042913
RightUpLeg -31.774368 -7.839144 -35.358309
RightLeg 19.275176 -0.000000 -0.000000
RightFoot -16.659182 -25.515698 10.995122
RightToeBase 6.948132 -0.000000 -0.000000
LeftUpLeg 11.031723 -34.030018 7.602319
LeftLeg 127.956304 -0.000000 -0.000000
LeftFoot 15.966103 16.076724 -29.517139
LeftToeBase 3.359103 -0.000000 -0.000000
Spine 12.596586 1.909326 -18.557893
RightShoulder -1.435922 -10.799958 -34.545189
RightArm 16.847610 34.903907 24.626203
RightForeArm 12.537373 -0.000000 31.917580
RightHand 7.207280 0.000000 -14.760448
RightHandThumb1 -24.326973 -0.000000 -32.862282
LeftShoulder -33.925098 37.057307 -15.734981
LeftArm 30.993149 -17.508586 -64.488716
LeftForeArm 50.907644 -0.000000 11.528751
LeftHand -11.239138 -0.000000 -20.390055
LeftHandThumb1 -26.253704 0.000000 33.147579
Head 1.074462 -9.634500 -20.132148
360
root -0.566473 39.120249 8.697416 40.692078 15.427766 40.199880
RightUpLeg -32.721594 -9.088917 -34.822887
RightLeg 20.213490 -0.000000 -0.000000
RightFoot -16.607317 -25.601837 10.988778
RightToeBase 6.611994 -0.000000 -0.000000
LeftUpLeg 10.995914 -34.031069 7.716843
LeftLeg 127.991368 -0.000000 -0.000000
LeftFoot 15.970873 16.142082 -29.625858
LeftToeBase 3.424930 -0.000000 -0.000000
Spine 12.552211 1.775253 -18.454414
RightShoulder -1.565569 -10.648224 -34.706994
RightArm 16.644540 35.283374 24.334937
RightForeArm 12.399508 -0.000000 31.680201
RightHand 7.315994 -0.000000 -14.806392
RightHandThumb1 -24.326973 -0.000000 -32.862282
LeftShoulder -33.938250 37.053418 -15.696664
LeftArm 30.946175 -17.595633 -64.700563
LeftForeArm 51.088373 0.000000 11.489845
LeftHand -11.286092 0.000000 -20.237245
LeftHandThumb1 -26.253704 0.000000 33.147579
Head 0.976887 -9.982969 -20.149614
361
root -0.577333 39.111835 8.652826 41.124557 15.526021 40.278712
RightUpLeg -33.791531 -10.388669 -34.081057
RightLeg 21.204837 -0.000000 -0.000000
RightFoot -16.379108 -25.864703 10.777300
RightToeBase 6.390979 -0.000000 -0.000000
LeftUpLeg 10.971477 -33.988147 7.873451
LeftLeg 128.022844 -0.000000 -0.000000
LeftFoot 16.036949 16.109957 -29.590234
LeftToeBase 3.472609 -0.000000 -0.000000
Spine 12.508624 1.706077 -18.293392
RightShoulder -1.671414 -10.399275 -34.883049
RightArm 16.347701 35.662538 24.068277
RightForeArm 12.295718 -0.000000 31.515731
RightHand 7.358236 0.000000 -14.825135
RightHandThumb1 -24.326973 -0.000000 -32.862282
LeftShoulder -33.909547 36.965545 -15.647238
LeftArm 30.815046 -17.670254 -64.856880
LeftForeArm 51.240507 -0.000000 11.469327
LeftHand -11.258104 -0.000000 -20.185874
LeftHandThumb1 -26.253704 0.000000 33.147579
Head 0.802515 -10.255428 -20.129395
362
root -0.592089 39.104559 8.601317 41.576121 15.596719 40.347336
RightUpLeg -34.926524 -11.776629 -33.196686
RightLeg 22.099877 -0.000000 -0.000000
RightFoot -16.226852 -26.252616 10.675849
RightToeBase 5.964747 -0.000000 -0.000000
LeftUpLeg 10.893838 -33.905363 8.046331
LeftLeg 128.082172 -0.000000 -0.000000
LeftFoot 16.157738 16.058785 -29.539971
LeftToeBase 3.341160 -0.000000 -0.000000
Spine 12.469106 1.658809 -18.162960
RightShoulder -1.814133 -10.173467 -35.033432
RightArm 16.087425 35.942555 23.757253
RightForeArm 12.371561 -0.000000 31.295438
RightHand 7.467385 -0.000000 -15.010549
RightHandThumb1 -24.326973 -0.000000 -32.862282
LeftShoulder -33.899354 36.837125 -15.578246
LeftArm 30.684495 -17.769751 -65.053600
LeftForeArm 51.366925 -0.000000 11.515261
LeftHand -11.378311 -0.000000 -20.252780
LeftHandThumb1 -26.253704 0.000000 33.147579
Head 0.567303 -10.602297 -20.076398
363
root -0.608785 39.097276 8.550140 42.000617 15.633549 40.395514
RightUpLeg -36.031591 -13.063008 -32.294134
RightLeg 22.871718 -0.000000 -0.000000
RightFoot -15.997706 -26.750222 10.410524
RightToeBase 5.484202 -0.000000 -0.000000
LeftUpLeg 10.846182 -33.810370 8.149376
LeftLeg 128.153093 -0.000000 -0.000000
LeftFoot 16.163863 16.056748 -29.789188
LeftToeBase 3.578418 -0.000000 -0.000000
Spine 12.458549 1.693451 -18.056557
RightShoulder -1.982362 -10.015573 -35.132723
RightArm 15.846218 36.307949 23.468920
RightForeArm 12.328612 -0.000000 31.096625
RightHand 7.526028 -0.000000 -15.114020
RightHandThumb1 -24.326973 -0.000000 -32.862282
LeftShoulder -33.869107 36.740250 -15.488016
LeftArm 30.600299 -17.901918 -65.304167
LeftForeArm 51.577760 -0.000000 11.565998
LeftHand -11.374362 -0.000000 -20.246703
LeftHandThumb1 -26.253704 0.000000 33.147579
Head 0.298839 -10.992187 -19.981310
364
root -0.628985 39.091058 8.498820 42.390415 15.630618 40.415945
RightUpLeg -37.022668 -14.072236 -31.503858
RightLeg 23.429443 -0.000000 -0.000000
RightFoot -15.768677 -27.257565 10.109349
RightToeBase 5.252674 -0.000000 -0.000000
LeftUpLeg 10.826729 -33.665347 8.213665
LeftLeg 128.230342 -0.000000 -0.000000
LeftFoot 16.275196 15.913369 -29.647900
LeftToeBase 3.697530 -0.000000 -0.000000
Spine 12.500184 1.746478 -17.982973
RightShoulder -2.161403 -9.831889 -35.231069
RightArm 15.609757 36.566305 23.171812
RightForeArm 12.416539 0.000000 30.932289
RightHand 7.518670 -0.000000 -15.331760
RightHandThumb1 -24.326973 -0.000000 -32.862282
LeftShoulder -33.849936 36.575986 -15.399716
LeftArm 30.485565 -18.021416 -65.526649
LeftForeArm 51.737231 -0.000000 11.601538
LeftHand -11.331852 -0.000000 -20.074586
LeftHandThumb1 -26.253704 0.000000 33.147579
Head -0.060699 -11.420171 -19.874031
365
root -0.646200 39.085223 8.451353 42.723989 15.628927 40.464637
RightUpLeg -37.744198 -14.804230 -30.916298
RightLeg 23.701869 -0.000000 -0.000000
RightFoot -15.622710 -27.778120 9.952097
RightToeBase 5.113781 -0.000000 -0.000000
LeftUpLeg 10.861538 -33.527652 8.195338
LeftLeg 128.307584 -0.000000 -0.000000
LeftFoot 16.406787 15.845178 -29.663817
LeftToeBase 3.539715 -0.000000 -0.000000
Spine 12.613572 1.790377 -17.946620
RightShoulder -2.298201 -9.639434 -35.350539
RightArm 15.374783 36.911112 22.991406
RightForeArm 12.359024 -0.000000 30.800809
RightHand 7.585184 -0.000000 -15.465663
RightHandThumb1 -24.326973 -0.000000 -32.862282
LeftShoulder -33.816298 36.433698 -15.292885
LeftArm 30.346585 -18.142548 -65.785388
LeftForeArm 51.826754 -0.000000 11.733870
LeftHand -11.389499 -0.000000 -20.148303
LeftHandThumb1 -26.253704 0.000000 33.147579
Head -0.410681 -11.789864 -19.718603
366
root -0.666984 39.080221 8.404692 43.046465 15.615010 40.503312
RightUpLeg -38.264705 -15.246001 -30.535964
RightLeg 23.728089 -0.000000 -0.000000
RightFoot -15.534368 -28.242265 9.835688
RightToeBase 4.977934 -0.000000 -0.000000
LeftUpLeg 10.890408 -33.377268 8.169283
LeftLeg 128.400626 -0.000000 -0.000000
LeftFoot 16.398664 15.812973 -29.841534
LeftToeBase 3.659974 -0.000000 -0.000000
Spine 12.733039 1.831382 -17.935487
RightShoulder -2.439109 -9.494330 -35.464199
RightArm 15.220143 37.201068 22.849904
RightForeArm 12.311670 -0.000000 30.646760
RightHand 7.824260 -0.000000 -15.725607
RightHandThumb1 -24.326973 -0.000000 -32.862282
LeftShoulder -33.817904 36.347437 -15.208235
LeftArm 30.332290 -18.359824 -66.138264
LeftForeArm 52.042438 -0.000000 11.786502
LeftHand -11.356660 0.000000 -20.221212
LeftHandThumb1 -26.253704 0.000000 33.147579
Head -0.747608 -12.110230 -19.525173
367
root -0.686002 39.072263 8.362207 43.337562 15.598465 40.565086
RightUpLeg -38.483079 -15.359620 -30.454823
RightLeg 23.488231 -0.000000 -0.000000
RightFoot -15.697512 -28.601387 9.943651
RightToeBase 5.306660 -0.000000 -0.000000
LeftUpLeg 10.946529 -33.215460 8.108391
LeftLeg 128.494181 -0.000000 -0.000000
LeftFoot 16.394090 15.779975 -29.822635
LeftToeBase 3.685163 -0.000000 -0.000000
Spine 12.860957 1.870382 -17.950895
RightShoulder -2.493129 -9.360455 -35.615628
RightArm 14.944499 37.357585 22.639630
RightForeArm 12.418759 0.000000 30.506072
RightHand 7.782297 0.000000 -15.993349
RightHandThumb1 -24.326973 -0.000000 -32.862282
LeftShoulder -33.790195 36.300529 -15.107901
LeftArm 30.240901 -18.385639 -66.360384
LeftForeArm 52.094105 -0.000000 11.904076
LeftHand -11.388227 0.000000 -20.261164
LeftHandThumb1 -26.253704 0.000000 33.147579
Head -1.040032 -12.292989 -19.283296
